<?xml version="1.0" encoding="UTF-8" standalone="no" ?>
<!DOCTYPE svg PUBLIC "-//W3C//DTD SVG 1.1//EN" "http://www.w3.org/Graphics/SVG/1.1/DTD/svg11.dtd">
<svg xmlns="http://www.w3.org/2000/svg" xmlns:xlink="http://www.w3.org/1999/xlink" version="1.1" width="1080" height="1080" viewBox="0 0 1080 1080" xml:space="preserve">
<g transform="matrix(30 0 0 30 540 540)" id="Icon_awesome-camera"  >
<path style="stroke: none; stroke-width: 1; stroke-dasharray: none; stroke-linecap: butt; stroke-dashoffset: 0; stroke-linejoin: miter; stroke-miterlimit: 4; fill: rgb(255,255,255); fill-rule: nonzero; opacity: 1;"  transform=" translate(-18, -18)" d="M 36 10.125 L 36 30.375 C 35.99944802829225 32.238732348630954 34.488732348630954 33.74944802829225 32.625 33.75 L 3.375 33.75 C 1.5112676513690495 33.74944802829225 0.0005519717077522301 32.238732348630954 0 30.375 L 0 10.125 C 0.0005519717077517583 8.26126765136905 1.511267651369049 6.750551971707752 3.3749999999999996 6.75 L 9.563 6.75 L 10.428 4.436999999999999 C 10.921225868743772 3.1213682921234813 12.178952487979098 2.249806785067823 13.583999999999998 2.25 L 22.408 2.25 C 23.81341340008404 2.249389742769078 25.071645767792873 3.121025532499586 25.565 4.436999999999997 L 26.437 6.75 L 32.625 6.75 C 34.488732348630954 6.750551971707751 35.99944802829225 8.261267651369048 36 10.125 Z M 26.438 20.25 C 26.438 15.589821280927765 22.660178719072235 11.811999999999998 18 11.811999999999998 C 13.339821280927765 11.811999999999998 9.562000000000001 15.589821280927763 9.562000000000001 20.249999999999996 C 9.562000000000001 24.910178719072235 13.339821280927765 28.688 18 28.688 C 22.6588073130245 28.68469079502152 26.434690795021524 24.9088073130245 26.438 20.25 Z M 24.188 20.25 C 24.188404476949806 22.752903332727588 22.681003152268865 25.009579567632972 20.36873807119592 25.967679484881273 C 18.05647299012298 26.925779402129574 15.394739867374795 26.396607250460775 13.62477691506475 24.62693032965563 C 11.854813962754704 22.85725340885049 11.325211638909092 20.19560584363567 12.282937844240108 17.8831859483306 C 13.240664049571123 15.570766053025526 15.49709663459005 14.063000032682364 18 14.063 C 21.414409855415624 14.069601055243561 24.180847121031235 16.8355912560134 24.188 20.249999999999996 Z" stroke-linecap="round" />
</g>
</svg>