<?xml version="1.0" encoding="UTF-8" standalone="no" ?>
<!DOCTYPE svg PUBLIC "-//W3C//DTD SVG 1.1//EN" "http://www.w3.org/Graphics/SVG/1.1/DTD/svg11.dtd">
<svg xmlns="http://www.w3.org/2000/svg" xmlns:xlink="http://www.w3.org/1999/xlink" version="1.1" width="1080" height="1080" viewBox="0 0 1080 1080" xml:space="preserve">
<g transform="matrix(5.74 0 0 5.74 540 540)" id="Icon_awesome-check-circle"  >
<path style="stroke: none; stroke-width: 1; stroke-dasharray: none; stroke-linecap: butt; stroke-dashoffset: 0; stroke-linejoin: miter; stroke-miterlimit: 4; fill: rgb(174,227,151); fill-rule: nonzero; opacity: 1;"  transform=" translate(-94.56, -94.56)" d="M 188.563 94.563 C 188.563 146.47776648409456 146.47776648409456 188.563 94.56299999999999 188.563 C 42.64823351590542 188.563 0.5629999999999882 146.47776648409456 0.5629999999999882 94.563 C 0.5629999999999882 42.64823351590543 42.64823351590542 0.5630000000000024 94.56299999999999 0.5630000000000024 C 146.47776648409456 0.5630000000000024 188.563 42.6482335159054 188.563 94.56299999999997 Z M 83.69 144.335 L 153.43200000000002 74.593 C 155.79972643850087 72.22460809612274 155.79972643850087 68.38539190387726 153.43200000000002 66.017 L 144.85600000000002 57.440999999999995 C 143.71873028950404 56.30340957229752 142.17606904595732 55.66429095700303 140.56750000000002 55.66429095700303 C 138.95893095404273 55.66429095700303 137.416269710496 56.30340957229752 136.27900000000002 57.440999999999995 L 79.4 114.317 L 52.847 87.762 C 50.4784936499977 85.39360700444928 46.638506350002295 85.39360700444928 44.27 87.762 L 35.694 96.338 C 33.326273561499164 98.70639190387726 33.326273561499164 102.54560809612272 35.694 104.91399999999999 L 75.113 144.33299999999997 C 77.48150635000229 146.7013929955507 81.3214936499977 146.7013929955507 83.69 144.33299999999997 Z" stroke-linecap="round" />
</g>
</svg>