<?xml version="1.0" encoding="UTF-8" standalone="no" ?>
<!DOCTYPE svg PUBLIC "-//W3C//DTD SVG 1.1//EN" "http://www.w3.org/Graphics/SVG/1.1/DTD/svg11.dtd">
<svg xmlns="http://www.w3.org/2000/svg" xmlns:xlink="http://www.w3.org/1999/xlink" version="1.1" width="1080" height="1080" viewBox="0 0 1080 1080" xml:space="preserve">
<g transform="matrix(30.97 0 0 30.97 540 540)" id="Icon_awesome-chevron-circle-right"  >
<path style="stroke: none; stroke-width: 1; stroke-dasharray: none; stroke-linecap: butt; stroke-dashoffset: 0; stroke-linejoin: miter; stroke-miterlimit: 4; fill: rgb(255,255,255); fill-rule: nonzero; opacity: 1;"  transform=" translate(-18, -18)" d="M 18 0.563 C 25.05319461177563 0.5625955389150884 31.41209235324721 4.811079595571429 34.11141991640799 11.327304353967202 C 36.81074747956877 17.843529112362972 35.318889768874776 25.344166274444508 30.331528021659643 30.33152802165964 C 25.344166274444515 35.318889768874776 17.843529112362983 36.810747479568775 11.327304353967211 34.111419916407996 C 4.811079595571439 31.412092353247218 0.5625955389150974 25.05319461177564 0.5629999999999988 18.000000000000014 C 0.5622041031436799 13.375176120129948 2.399055742957967 8.939544494307992 5.669300118632978 5.669300118632979 C 8.93954449430799 2.399055742957966 13.375176120129947 0.5622041031436851 17.999999999999996 0.5630000000000024 Z M 26.009 16.8 L 16.481 7.277 C 16.165482689690645 6.959694789396563 15.736474881731862 6.78128351038897 15.289000000000001 6.78128351038897 C 14.841525118268141 6.78128351038897 14.412517310309358 6.959694789396563 14.097000000000001 7.277 L 12.897000000000002 8.477 C 12.579694789396564 8.792517310309357 12.401283510388971 9.22152511826814 12.401283510388971 9.669 C 12.401283510388971 10.116474881731861 12.579694789396564 10.545482689690644 12.897000000000002 10.861 L 20.046 18 L 12.9 25.144 C 12.582694789396562 25.459517310309355 12.40428351038897 25.888525118268138 12.40428351038897 26.336 C 12.40428351038897 26.78347488173186 12.582694789396562 27.212482689690642 12.9 27.528 L 14.1 28.727999999999998 C 14.415517310309356 29.045305210603434 14.844525118268137 29.22371648961103 15.291999999999998 29.22371648961103 C 15.739474881731859 29.22371648961103 16.16848268969064 29.045305210603434 16.483999999999998 28.727999999999998 L 26.009 19.2 C 26.329248451577143 18.882799405200316 26.5094205958372 18.45074969559483 26.5094205958372 18 C 26.5094205958372 17.54925030440517 26.329248451577143 17.117200594799684 26.009 16.8 Z" stroke-linecap="round" />
</g>
</svg>