<?xml version="1.0" encoding="UTF-8" standalone="no" ?>
<!DOCTYPE svg PUBLIC "-//W3C//DTD SVG 1.1//EN" "http://www.w3.org/Graphics/SVG/1.1/DTD/svg11.dtd">
<svg xmlns="http://www.w3.org/2000/svg" xmlns:xlink="http://www.w3.org/1999/xlink" version="1.1" width="1080" height="1080" viewBox="0 0 1080 1080" xml:space="preserve">
<g transform="matrix(8.52 0 0 7.66 540 540)" id="Icon_material-fingerprint"  >
<path style="stroke: none; stroke-width: 1; stroke-dasharray: none; stroke-linecap: butt; stroke-dashoffset: 0; stroke-linejoin: miter; stroke-miterlimit: 4; fill: rgb(32,11,176); fill-rule: nonzero; opacity: 1;"  transform=" translate(-67.85, -73.42)" d="M 108.806 20.393 C 108.23844708552731 20.39493213843058 107.68015753875002 20.249156534549844 107.18599999999999 19.970000000000002 C 93.666 13 81.977 10.042 67.964 10.042 C 54.2579115137397 9.961198278212944 40.757829066093976 13.378640050200667 28.74099999999995 19.971000000000032 C 27.02891727552454 20.90436122721404 24.88436122721404 20.273082724475458 23.951 18.561 C 23.017638772785958 16.848917275524542 23.64891727552454 14.704361227214042 25.361 13.771 C 38.42934774302302 6.6527984367671404 53.08287746225261 2.948055376282623 67.96399999999997 3 C 82.964 3 96.064 6.3100000000000005 110.426 13.7 C 111.84024348821859 14.473222256783307 112.55950733417701 16.099375966694772 112.18016509853219 17.665918902783577 C 111.80082286288736 19.232461838872382 110.4173071563557 20.34942229392078 108.806 20.39 Z M 8.038 57.362 C 7.310849742230718 57.357293454301974 6.601496695417852 57.136621309218874 6 56.728 C 5.228389060793696 56.191391685381966 4.704134477790473 55.36782280425255 4.544565791178066 54.44161021576498 C 4.384997104565659 53.515397627277416 4.603437698676862 52.56387659408425 5.150999999999999 51.8 C 11.947486870917524 42.08903789781737 21.012331805528685 34.18446016050183 31.55799999999996 28.77300000000001 C 53.669 17.365000000000002 81.977 17.295 104.15799999999999 28.703 C 114.68150898488571 34.08401046288424 123.7428640893562 41.93716201061444 130.56499999999997 51.58899999999993 C 131.6927654591545 53.1834460727615 131.3144460727615 55.39023454084552 129.72 56.518 C 128.1255539272385 57.64576545915448 125.91876545915447 57.2674460727615 124.791 55.673 C 118.62390106764997 46.94478820151522 110.43259747186892 39.84190681609851 100.91899999999997 34.972999999999985 C 80.709 24.622 54.866 24.622 34.727000000000004 35.043 C 25.187845251162837 39.96513056502367 16.975344463793185 47.113594202513575 10.78500000000001 55.88299999999998 C 10.206744782228052 56.839200404060456 9.154597585668999 57.405682276543466 8.038 57.362 Z M 52.04900000000001 142.356 C 51.114902478348654 142.36877117298445 50.21915837841277 141.98503658088208 49.584 141.29999999999998 C 43.8743250661761 135.92518325728273 39.09192196062082 129.6439289311366 35.42999999999999 122.70999999999998 C 30.571000000000005 114.04899999999998 28.03600000000001 103.48599999999998 28.03600000000001 92.14899999999997 C 28.03600000000001 71.23499999999997 45.92200000000001 54.193999999999974 67.89200000000001 54.193999999999974 C 89.86200000000001 54.193999999999974 107.74800000000002 71.23499999999997 107.74800000000002 92.14899999999997 C 107.74800000000002 94.09359460415419 106.17159460415424 95.66999999999997 104.22700000000002 95.66999999999997 C 102.2824053958458 95.66999999999997 100.70600000000002 94.09359460415419 100.70600000000002 92.14899999999997 C 100.70600000000002 75.10799999999998 85.98900000000002 61.235999999999976 67.89100000000002 61.235999999999976 C 49.79300000000002 61.235999999999976 35.079 75.107 35.079 92.148 C 35.079 102.288 37.332 111.654 41.628 119.259 C 46.135 127.359 49.233000000000004 130.807 54.655 136.3 C 55.99292350961176 137.6981607690309 55.99292350961176 139.90183923096913 54.655 141.3 C 53.94988793878632 141.96695652849303 53.01949948232197 142.34396735352232 52.049 142.356 Z M 102.53800000000001 129.329 C 94.15800000000002 129.329 86.76500000000001 127.21600000000001 80.709 123.06200000000001 C 70.33707654310501 116.17843218236223 64.0579566728518 104.59583705920406 63.95 92.148 C 63.95 90.20340539584578 65.52640539584579 88.627 67.471 88.627 C 69.41559460415422 88.627 70.992 90.20340539584578 70.992 92.148 C 71.07455832524326 102.2610581892516 76.19943419772574 111.66560494624326 84.653 117.21700000000001 C 89.653 120.597 95.497 122.217 102.539 122.217 C 104.99464713252752 122.17727034318179 107.44329583531947 121.9432058761663 109.86199999999998 121.517 C 111.77511806095714 121.21031108021549 113.57889598066559 122.499909768281 113.90759368941254 124.40936954134341 C 114.23629139815947 126.31882931440582 112.96754830147707 128.13733708576913 111.062 128.488 C 108.2516691990559 129.021278109583 105.39935915683986 129.3027274520098 102.539 129.329 Z M 88.385 143.835 C 88.07567369968982 143.82250080225276 87.76873920331377 143.7752026995325 87.47 143.69400000000002 C 76.27 140.59400000000002 68.95 136.44100000000003 61.269999999999996 128.906 C 51.44549020136206 119.20377848087703 45.939433187383116 105.95565098726976 45.993 92.14800000000001 C 45.993 80.74 55.711 71.448 67.682 71.448 C 79.653 71.448 89.37100000000001 80.74799999999999 89.37100000000001 92.148 C 89.37100000000001 99.68299999999999 95.92000000000002 105.809 104.01800000000001 105.809 C 112.11600000000001 105.809 118.66500000000002 99.68299999999999 118.66500000000002 92.148 C 118.66500000000002 65.601 95.77900000000002 44.047999999999995 67.61200000000002 44.047999999999995 C 47.61200000000002 44.047999999999995 29.30500000000002 55.17399999999999 21.066000000000024 72.42599999999999 C 18.218296456040783 78.60304461496686 16.798167824360892 85.34207619880138 16.911000000000023 92.143 C 16.890999151677015 100.83616341908954 18.490970464398234 109.45694992622954 21.629000000000012 117.564 C 21.973511027839113 118.43124892336327 21.95057631007484 119.40130281865031 21.565464869370082 120.25130147842326 C 21.180353428665324 121.10130013819621 20.466173211584852 121.75816936305866 19.587000000000028 122.071 C 18.71864974933678 122.39948186186535 17.755254056620696 122.36875793276847 16.909598461890425 121.98561421756119 C 16.06394286716015 121.60247050235392 15.405607816366949 120.89843202225488 15.080000000000025 120.029 C 11.68762092243021 111.12462126888168 9.945850363822764 101.67670201897239 9.939999999999996 92.148 C 9.819608363658197 84.28157826499587 11.455321138134963 76.48734540165268 14.727999999999989 69.33300000000004 C 24.094 49.687 44.867 36.940999999999995 67.611 36.940999999999995 C 99.65100000000001 36.940999999999995 125.70500000000001 61.657999999999994 125.70500000000001 92.078 C 125.70500000000001 103.486 115.98700000000001 112.778 104.01600000000002 112.778 C 92.04500000000003 112.778 82.32700000000003 103.47800000000001 82.32700000000003 92.078 C 82.32700000000003 84.543 75.77800000000002 78.417 67.68000000000002 78.417 C 59.58200000000002 78.417 53.035 84.543 53.035 92.078 C 52.97445722046088 104.00357548528751 57.71984356254775 115.45089637036116 66.2 123.83599999999998 C 72.89 130.45499999999998 79.3 134.117 89.226 136.863 C 90.12379508684951 137.10522388831353 90.88829288451335 137.69476480303277 91.35076181087676 138.50150572934623 C 91.81323073724019 139.3082466556597 91.93564979848946 140.2658629390445 91.691 141.163 C 91.33950889731557 142.7132729922552 89.97050729191311 143.82005495481016 88.381 143.839 Z" stroke-linecap="round" />
</g>
</svg>